<?xml version="1.0" standalone="no"?>
<!DOCTYPE svg PUBLIC "-//W3C//DTD SVG 20010904//EN"
 "http://www.w3.org/TR/2001/REC-SVG-20010904/DTD/svg10.dtd">
<svg version="1.0" xmlns="http://www.w3.org/2000/svg"
 width="1080.000000pt" height="1080.000000pt" viewBox="0 0 1080.000000 1080.000000"
 preserveAspectRatio="xMidYMid meet">

<g transform="translate(0.000000,1080.000000) scale(0.100000,-0.100000)"
fill="#000000" stroke="none">
<path d="M5684 8240 c-111 -16 -348 -116 -537 -227 -63 -37 -70 -39 -120 -32
-86 12 -248 10 -318 -5 -77 -17 -153 -53 -203 -97 -36 -31 -96 -138 -96 -171
0 -16 -9 -18 -68 -18 -181 0 -342 -93 -391 -226 -29 -77 -62 -118 -126 -159
-88 -57 -101 -79 -108 -184 -4 -53 -16 -115 -28 -148 -50 -136 -61 -188 -66
-324 -5 -114 -3 -144 12 -190 25 -74 22 -161 -11 -294 -38 -153 -38 -250 -1
-329 15 -32 27 -70 27 -84 0 -13 -14 -65 -31 -115 -21 -61 -29 -99 -25 -121 6
-30 41 -93 134 -245 l44 -70 9 -143 c7 -93 6 -179 0 -248 -12 -128 -22 -299
-16 -285 2 6 9 30 15 54 6 23 13 41 16 39 2 -3 9 -104 14 -224 9 -210 33 -400
65 -523 25 -97 119 -324 125 -302 4 17 11 10 35 -36 17 -34 73 -103 135 -168
58 -61 149 -160 204 -220 153 -171 232 -236 371 -304 71 -36 142 -79 175 -108
29 -26 51 -40 48 -31 -6 15 -4 16 35 2 23 -9 98 -20 167 -25 217 -17 227 -19
266 -45 l36 -25 -4 30 c-6 43 5 39 47 -15 l35 -47 0 30 c0 17 9 41 21 54 19
23 20 23 10 2 -18 -35 -13 -37 25 -8 20 15 69 46 110 69 50 28 115 80 203 163
95 90 131 119 139 111 7 -7 13 -10 14 -7 2 2 13 24 26 49 41 81 88 137 120
143 40 8 95 57 145 131 l42 61 5 -30 c6 -30 6 -30 21 15 29 83 192 440 200
440 5 0 9 -11 9 -25 0 -14 5 -25 10 -25 6 0 10 11 10 24 0 27 50 309 56 315 2
3 10 -3 17 -12 10 -14 12 9 12 125 0 168 12 288 27 267 9 -14 4 84 -8 156 l-5
30 25 -28 26 -28 0 33 c-1 18 -7 51 -15 73 l-14 40 20 -24 c25 -30 24 -27 -12
109 -34 128 -34 162 2 341 19 100 41 163 59 174 6 4 29 43 51 87 34 67 44 102
60 204 37 242 68 336 126 380 60 46 135 234 119 299 -4 15 -22 31 -51 45 -55
26 -141 131 -107 130 4 0 16 -7 26 -15 11 -8 23 -15 27 -15 13 0 -2 73 -27
132 l-25 57 22 58 c12 32 21 72 20 88 -5 63 -4 81 3 107 6 21 3 31 -15 49 -13
13 -24 28 -25 34 0 5 -2 17 -2 26 -1 9 -12 29 -24 44 -20 26 -22 41 -24 159
-2 181 -13 224 -74 279 -26 24 -74 57 -106 74 -39 21 -71 48 -96 82 -28 37
-54 57 -102 81 -38 18 -67 39 -71 50 -13 40 -123 196 -165 234 -80 72 -242
130 -435 156 -57 7 -84 16 -95 29 -31 39 -93 53 -176 41z m-14 -1225 c36 -11
106 -19 206 -22 138 -5 154 -4 198 16 27 11 52 21 56 21 15 0 157 -99 208
-145 77 -70 118 -136 153 -248 17 -54 29 -100 26 -103 -6 -6 -73 95 -92 138
-19 45 -19 14 1 -53 21 -69 54 -135 114 -224 66 -99 68 -107 11 -45 -28 30
-51 51 -51 46 0 -5 23 -125 51 -268 28 -143 49 -261 47 -263 -2 -2 -21 0 -43
6 -274 65 -510 66 -805 4 -60 -12 -99 -30 -192 -87 l-118 -71 -42 16 c-70 27
-129 31 -172 13 -52 -22 -74 -20 -110 8 -85 65 -240 122 -386 142 -143 20
-487 14 -590 -10 -77 -18 -90 -19 -90 -6 0 25 46 127 105 230 36 63 65 115 65
117 0 2 -9 -1 -20 -7 -24 -13 -26 -3 -3 22 15 17 15 20 -15 49 -57 56 -49 115
29 231 86 127 210 229 331 273 l63 23 -35 6 c-19 3 -48 7 -64 8 -26 3 -20 8
60 61 51 33 113 64 144 72 30 8 89 26 131 40 l75 26 74 -30 74 -31 27 26 c25
24 33 26 175 30 81 3 150 7 153 10 12 11 198 -4 251 -21z m-270 -1443 c44 -31
77 -117 114 -297 41 -196 75 -277 156 -367 64 -71 170 -143 263 -177 64 -23
87 -26 202 -26 106 0 145 5 210 23 149 43 239 101 322 207 l31 39 6 -89 c15
-186 12 -245 -15 -311 -14 -34 -47 -93 -73 -133 -40 -60 -47 -77 -42 -103 5
-26 4 -29 -9 -18 -12 10 -15 10 -15 -3 0 -24 -50 -191 -61 -201 -5 -6 -22 -3
-44 7 -35 17 -35 17 -35 -8 0 -54 -17 -27 -43 70 -23 82 -35 108 -60 133 -37
35 -169 112 -307 178 -162 78 -199 93 -194 79 4 -10 -5 -10 -50 0 -109 25
-193 29 -234 9 -20 -9 -58 -19 -85 -22 -39 -4 -45 -7 -36 -18 9 -11 7 -14 -12
-14 -23 0 -23 -1 6 -21 l30 -20 -49 7 c-46 6 -48 6 -37 -14 6 -12 16 -24 21
-27 18 -11 11 -25 -12 -26 l-23 0 23 -16 24 -16 -22 -12 c-20 -11 -14 -13 46
-19 38 -4 85 -9 104 -13 33 -6 34 -5 20 12 -14 17 -11 18 77 13 52 -3 90 -2
87 3 -10 17 75 9 161 -16 48 -14 90 -23 93 -20 3 3 -1 5 -8 5 -7 0 -11 2 -8 5
8 9 189 -58 241 -89 52 -30 86 -85 87 -139 0 -16 4 -26 9 -22 15 9 24 -60 18
-125 -4 -32 -18 -106 -32 -165 -28 -121 -29 -133 -9 -90 14 30 15 29 8 -20 -7
-56 -29 -89 -56 -82 -15 4 -22 -7 -39 -64 -12 -38 -24 -69 -27 -69 -3 0 -13 7
-23 15 -15 15 -21 11 -74 -52 -55 -66 -56 -69 -51 -115 3 -27 1 -48 -4 -48 -5
0 -27 17 -49 38 l-40 38 6 -58 c6 -58 6 -58 -21 -58 -15 0 -38 8 -53 17 l-25
17 3 -48 c5 -54 6 -53 -93 -26 l-46 14 -27 -33 c-25 -29 -73 -61 -93 -61 -4 0
-47 25 -95 55 -47 30 -91 55 -96 55 -5 0 -28 -22 -51 -50 -54 -64 -130 -120
-175 -127 l-35 -6 0 68 c0 60 -2 66 -17 60 -49 -20 -132 -36 -163 -32 -45 6
-268 165 -361 257 -59 59 -70 75 -109 175 -35 91 -44 126 -49 202 -3 50 -3 89
1 86 10 -5 11 -10 -12 77 -22 84 -24 104 -11 96 5 -4 7 19 4 54 -7 78 5 97
109 155 123 69 224 95 392 102 110 5 137 3 131 -7 -6 -10 5 -11 51 -7 125 12
226 26 232 31 3 3 -1 6 -8 6 -9 0 -5 10 11 26 l24 26 -25 -6 c-24 -7 -24 -6
-6 8 23 19 22 19 -24 6 -34 -9 -34 -9 -14 8 12 9 30 22 40 29 18 12 18 12 -1
6 -19 -6 -19 -6 -2 14 18 20 18 20 -25 12 -24 -4 -46 -8 -50 -9 -15 0 -3 25
17 38 18 12 17 13 -14 8 -29 -5 -32 -4 -21 9 11 13 8 15 -14 15 -14 0 -26 5
-26 10 0 12 -88 12 -147 1 -27 -5 -43 -5 -43 1 0 15 -112 -1 -208 -28 -82 -24
-383 -172 -451 -222 -18 -13 -44 -48 -57 -76 -21 -45 -25 -48 -30 -28 -9 33
-20 27 -39 -23 l-18 -45 -31 53 c-20 34 -49 63 -81 84 -109 70 -127 85 -140
117 -20 47 -33 342 -15 331 11 -7 12 18 6 131 l-7 138 41 -61 c55 -83 160
-179 234 -214 90 -43 153 -52 301 -46 149 6 244 29 345 83 43 22 66 30 69 22
2 -6 19 -27 38 -47 l34 -36 -30 44 c-17 24 -31 49 -31 55 0 6 14 25 31 41 44
43 116 145 140 199 11 25 42 132 69 237 48 185 68 236 109 273 42 38 122 42
171 8z"/>
<path d="M5622 4880 c24 -38 32 -63 32 -99 1 -27 4 -47 9 -44 4 2 7 23 7 47 0
31 -8 55 -31 89 -42 64 -56 70 -17 7z"/>
<path d="M5007 4743 c-13 -12 -7 -40 11 -56 23 -21 33 -22 26 -3 -9 22 25 27
64 9 20 -9 42 -19 47 -21 6 -3 -1 7 -14 21 -39 42 -114 71 -134 50z"/>
<path d="M5503 4714 l-28 -25 32 15 c18 9 44 16 58 16 15 0 24 4 20 10 -11 18
-54 10 -82 -16z"/>
<path d="M4689 4269 c-103 -56 -102 -95 3 -174 35 -27 82 -66 104 -87 41 -39
108 -65 120 -47 3 5 15 3 26 -6 16 -11 25 -12 35 -3 10 8 20 8 38 0 18 -9 33
-8 62 3 28 10 32 14 16 14 -12 1 -27 10 -33 21 -9 17 -14 18 -32 9 -16 -9 -26
-7 -48 9 -27 20 -27 20 -43 1 -21 -24 -33 -24 -90 1 -62 28 -90 65 -83 109 7
43 12 48 37 33 19 -12 20 -11 13 23 -3 19 -2 41 3 48 33 41 14 77 -40 77 -18
0 -57 -14 -88 -31z"/>
<path d="M5820 4258 c-6 -24 -16 -54 -22 -68 -6 -14 -18 -54 -28 -90 -12 -47
-21 -65 -33 -65 -9 0 -23 -9 -31 -20 -14 -20 -15 -20 -49 -1 -33 17 -37 17
-58 2 -13 -9 -39 -16 -59 -16 -19 0 -46 -3 -60 -7 -22 -6 -20 -8 20 -18 25 -6
52 -8 62 -3 9 4 30 3 48 -3 23 -9 38 -9 56 0 36 16 62 14 73 -6 5 -10 11 -16
13 -13 92 117 143 169 200 207 86 56 101 93 40 93 -15 0 -45 12 -67 25 -22 14
-52 25 -67 25 -24 0 -29 -6 -38 -42z"/>
<path d="M5270 3990 c0 -5 -15 -11 -32 -12 -28 -1 -25 -2 12 -7 25 -4 53 -5
63 -2 15 3 13 6 -9 17 -31 17 -34 17 -34 4z"/>
<path d="M5146 3963 c5 -5 12 -12 15 -16 3 -5 9 -2 12 7 5 12 0 16 -15 16 -12
0 -17 -3 -12 -7z"/>
<path d="M4939 3534 c36 -27 72 -64 80 -81 15 -30 19 -31 57 -26 33 4 46 1 62
-15 14 -14 22 -17 26 -9 2 7 5 7 5 2 1 -6 16 -9 34 -7 28 3 66 -8 120 -36 4
-2 7 7 8 20 1 15 6 7 14 -22 7 -25 14 -36 14 -25 1 11 8 31 15 45 l14 24 11
-39 c6 -22 11 -47 12 -55 0 -8 7 7 14 34 17 62 31 77 43 45 5 -13 12 -31 15
-39 3 -9 6 -3 6 13 1 42 71 104 71 63 0 -11 8 -10 38 6 20 10 47 17 59 15 18
-3 26 4 43 39 27 58 27 90 0 48 -18 -27 -30 -34 -86 -44 -41 -8 -94 -10 -143
-6 -64 6 -80 4 -91 -8 -16 -20 -29 -20 -51 0 -16 14 -21 14 -56 -4 -38 -20
-38 -20 -76 0 -28 14 -42 16 -52 8 -16 -13 -82 8 -180 59 -97 50 -98 50 -26
-5z"/>
</g>
</svg>
